<svg xmlns="http://www.w3.org/2000/svg" xmlns:xlink="http://www.w3.org/1999/xlink" viewBox="0 0 55 55"><defs><style>.cls-1{fill:#faf7ef;}.cls-2{fill:url(#linear-gradient);}</style><linearGradient id="linear-gradient" x1="-253.81" y1="443.12" x2="-238.24" y2="470.09" gradientTransform="translate(-219.1 484.65) rotate(180)" gradientUnits="userSpaceOnUse"><stop offset="0" stop-color="#bc5849"/><stop offset="1" stop-color="#bc8949"/></linearGradient></defs><g id="Layer_2" data-name="Layer 2"><g id="Layer_4" data-name="Layer 4"><circle class="cls-1" cx="27.5" cy="27.5" r="27.5"/></g><g id="Layer_9" data-name="Layer 9"><path class="cls-2" d="M24.38,12.37l1.8-1.8a1.93,1.93,0,0,1,2.74,0L44.67,26.31a1.93,1.93,0,0,1,0,2.74L28.92,44.8a1.93,1.93,0,0,1-2.74,0L24.38,43a1.94,1.94,0,0,1,0-2.78l9.76-9.3H10.89A1.94,1.94,0,0,1,9,29V26.39a1.94,1.94,0,0,1,1.94-1.95H34.17l-9.76-9.29A1.94,1.94,0,0,1,24.38,12.37Z"/></g></g></svg>