<svg xmlns="http://www.w3.org/2000/svg" xmlns:xlink="http://www.w3.org/1999/xlink" viewBox="0 0 85 85"><defs><style>.cls-1{fill:url(#linear-gradient);}.cls-2{fill:#faf7ef;}</style><linearGradient id="linear-gradient" x1="63.75" y1="79.31" x2="21.25" y2="5.69" gradientUnits="userSpaceOnUse"><stop offset="0" stop-color="#0e1a11"/><stop offset="1" stop-color="#2d2d2d"/></linearGradient></defs><g id="Layer_2" data-name="Layer 2"><g id="Layer_9" data-name="Layer 9"><circle class="cls-1" cx="42.5" cy="42.5" r="42.5"/><path class="cls-2" d="M14.37,57.18q0-1.05.09-2a6.91,6.91,0,0,1,.37-1.61c1.75-.09,2.93-.52,3.52-1.29s.89-2.25.89-4.44V37.08A13.15,13.15,0,0,0,19,34a2.55,2.55,0,0,0-1.32-1.65,8.54,8.54,0,0,0-3.26-.65A8.54,8.54,0,0,1,14.53,30a5.52,5.52,0,0,1,.56-1.55,31.56,31.56,0,0,0,3.66-.4,37.75,37.75,0,0,0,3.82-.82,14.1,14.1,0,0,0,2.8-1,2.14,2.14,0,0,1,1.22.95,4.07,4.07,0,0,1,.49,2.21,17.3,17.3,0,0,1-.19,2.47c-.14.9-.38,2.3-.73,4.19l-.53.06c.71-1.89,1.25-3.19,1.62-3.92a8.91,8.91,0,0,1,.95-1.55,13.83,13.83,0,0,1,3.66-2.93,10.8,10.8,0,0,1,5.57-1.42,11,11,0,0,1,5.34,1.29,8,8,0,0,1,3.56,4.05,6,6,0,0,1,.52,2.57h-.26a10.36,10.36,0,0,1,1.91-3.36A13.14,13.14,0,0,1,52.06,28a10.51,10.51,0,0,1,5.4-1.35,11.53,11.53,0,0,1,5.14,1.09,7.83,7.83,0,0,1,3.53,3.49,13.8,13.8,0,0,1,1.28,6.43v9.22a20.19,20.19,0,0,0,.33,4.25A2.83,2.83,0,0,0,68.9,53a5.11,5.11,0,0,0,2.14.63,7.47,7.47,0,0,1,.36,1.61,16.93,16.93,0,0,1,.1,2c-1.06-.09-2.28-.14-3.66-.17s-2.78,0-4.18,0l-3.07,0-3.09.07c-1,0-1.86.05-2.61.1a18.66,18.66,0,0,1,.1-2,11.51,11.51,0,0,1,.3-1.55A5.89,5.89,0,0,0,57.76,53,3.08,3.08,0,0,0,59,51a15.34,15.34,0,0,0,.4-4V39.32q0-4.41-1.45-6a5,5,0,0,0-3.82-1.58,5.53,5.53,0,0,0-3.3,1.16,8,8,0,0,0-2.57,3.52,15.86,15.86,0,0,0-1,6.06v5.27c0,2.25.31,3.76.93,4.55a4.26,4.26,0,0,0,3.29,1.32,5.66,5.66,0,0,1,.36,1.58,17.72,17.72,0,0,1,.1,2c-1.1-.09-2.42-.14-4-.17l-4.58,0-4.52,0c-1.56,0-2.93.08-4.12.17,0-.7,0-1.36.1-2a9.48,9.48,0,0,1,.3-1.58A6.31,6.31,0,0,0,37.76,53,2.94,2.94,0,0,0,39,51a17.6,17.6,0,0,0,.37-4.19v-8c0-2.81-.49-4.73-1.45-5.77a5.37,5.37,0,0,0-7.15-.36,8.4,8.4,0,0,0-2.54,3.56,15.67,15.67,0,0,0-1,6v5.46c0,2.25.29,3.76.86,4.55s1.67,1.23,3.29,1.32a5.68,5.68,0,0,1,.33,1.61c0,.6.07,1.25.07,2-.7,0-1.58-.08-2.64-.1L26,57l-2.94,0-3,0-3.16.07C15.92,57.1,15.07,57.13,14.37,57.18Z"/></g></g></svg>