<svg xmlns="http://www.w3.org/2000/svg" viewBox="0 0 179.96 179.96"><defs><style>.cls-1{fill:#0e1a11;fill-rule:evenodd;}</style></defs><g id="Layer_2" data-name="Layer 2"><g id="Layer_9" data-name="Layer 9"><g id="smile_happy_1"><path class="cls-1" d="M90,0a90,90,0,1,0,90,90A90,90,0,0,0,90,0Zm0,157.46A67.49,67.49,0,1,1,157.46,90,67.54,67.54,0,0,1,90,157.46ZM67.48,78.73A11.25,11.25,0,1,0,56.24,90,11.25,11.25,0,0,0,67.48,78.73Zm56.24-11.25A11.25,11.25,0,1,0,135,78.73,11.25,11.25,0,0,0,123.72,67.48ZM115,101.23a11,11,0,0,0-8.23,3.66,22.43,22.43,0,0,1-33.62,0,11,11,0,0,0-8.23-3.66,11.31,11.31,0,0,0-8.34,18.92,45,45,0,0,0,66.75,0A11.31,11.31,0,0,0,115,101.23Z"/></g></g></g></svg>