<svg xmlns="http://www.w3.org/2000/svg" viewBox="0 0 598 22"><defs><style>.cls-1{fill:none;stroke:#faf7ef;stroke-miterlimit:10;stroke-width:2px;}</style></defs><g id="Layer_2" data-name="Layer 2"><g id="Layer_9" data-name="Layer 9"><path class="cls-1" d="M0,1C17.59,1,17.59,21,35.17,21S52.76,1,70.35,1s17.59,20,35.17,20S123.11,1,140.7,1s17.58,20,35.17,20S193.46,1,211.05,1s17.58,20,35.17,20S263.81,1,281.4,1,299,21,316.57,21,334.16,1,351.75,1s17.58,20,35.17,20S404.51,1,422.1,1s17.59,20,35.18,20S474.87,1,492.45,1,510,21,527.63,21s17.6-20,35.19-20S580.41,21,598,21"/></g></g></svg>